<svg width="56" height="56" viewBox="0 0 56 56" fill="none" xmlns="http://www.w3.org/2000/svg">
<path fill-rule="evenodd" clip-rule="evenodd" d="M28 56C12.536 56 0 43.464 0 28C0 12.536 12.536 0 28 0C43.464 0 56 12.536 56 28C56 43.464 43.464 56 28 56ZM50.5725 31.9347C45.6511 30.7913 41.0495 30.4972 36.7533 31.0589C38.8941 36.3413 40.4523 41.5096 41.4262 46.5645C46.1625 43.1331 49.5341 37.9337 50.5725 31.9347ZM36.7254 49.1889C35.8115 43.6899 34.1377 38.0123 31.7009 32.1573C24.8603 34.2733 18.8731 38.8355 13.6697 45.8748C17.5936 49.0246 22.5767 50.9091 28 50.9091C31.0894 50.9091 34.0361 50.2975 36.7254 49.1889ZM10.0428 42.2269C15.6587 34.8417 22.2013 29.9174 29.6102 27.4806C29.1324 26.4798 28.633 25.474 28.1119 24.4632C26.7964 24.8145 25.4325 25.118 24.0222 25.3758C18.3441 26.4138 13.4224 26.616 5.43958 26.5019C5.33484 26.5004 5.23488 26.499 5.13939 26.4976C5.10723 26.9943 5.09091 27.4952 5.09091 28C5.09091 33.3758 6.94252 38.3191 10.0428 42.2269ZM6.05028 21.4188C7.8667 15.352 12.1297 10.3421 17.6937 7.53456C20.6637 11.7151 23.2993 15.819 25.6012 19.8459C24.792 20.038 23.9603 20.2118 23.1067 20.3679C17.9709 21.3068 13.4018 21.5116 6.05028 21.4188ZM22.6432 5.72061C25.6228 9.9857 28.2707 14.1848 30.5861 18.3182C35.4651 16.4314 39.2523 13.6274 41.8328 9.737C37.9891 6.82116 33.1966 5.09091 28 5.09091C26.1553 5.09091 24.3616 5.30893 22.6432 5.72061ZM45.5664 13.2938C48.6587 16.9836 50.6101 21.6622 50.8775 26.7866C45.1195 25.5456 39.7045 25.3624 34.6489 26.2296C34.1251 25.1054 33.5757 23.9761 33.0006 22.8418C38.2464 20.719 42.4939 17.6014 45.5664 13.2938Z" fill="white"/>
</svg>
