<svg width="51" height="50" viewBox="0 0 51 50" fill="none" xmlns="http://www.w3.org/2000/svg">
<path d="M23.2893 25.011H28.05V40H33.15V25.011H38.2052V20.011H33.15V17.5C33.15 16.1193 34.2917 15 35.7 15H38.25V10H35.7C31.475 10 28.05 13.3579 28.05 17.5V20.011H23.2893V25.011Z" fill="white"/>
<path fill-rule="evenodd" clip-rule="evenodd" d="M5.1 0H45.9C48.7167 0 51 2.23858 51 5V45C51 47.7614 48.7167 50 45.9 50H5.1C2.28335 50 0 47.7614 0 45V5C0 2.23858 2.28335 0 5.1 0ZM5.1 5V45H45.9V5H5.1Z" fill="white"/>
</svg>
