<svg width="51" height="50" viewBox="0 0 51 50" fill="none" xmlns="http://www.w3.org/2000/svg">
<path fill-rule="evenodd" clip-rule="evenodd" d="M25.5 37.5C18.4584 37.5 12.75 31.9036 12.75 25C12.75 18.0964 18.4584 12.5 25.5 12.5C32.5416 12.5 38.25 18.0964 38.25 25C38.25 31.9036 32.5416 37.5 25.5 37.5ZM25.5 32.5C29.725 32.5 33.15 29.1421 33.15 25C33.15 20.8579 29.725 17.5 25.5 17.5C21.275 17.5 17.85 20.8579 17.85 25C17.85 29.1421 21.275 32.5 25.5 32.5Z" fill="white"/>
<path d="M40.8 12.5C40.8 13.8807 39.6583 15 38.25 15C36.8417 15 35.7 13.8807 35.7 12.5C35.7 11.1193 36.8417 10 38.25 10C39.6583 10 40.8 11.1193 40.8 12.5Z" fill="white"/>
<path fill-rule="evenodd" clip-rule="evenodd" d="M35.7 0H15.3C6.85004 0 0 6.71573 0 15V35C0 43.2843 6.85004 50 15.3 50H35.7C44.15 50 51 43.2843 51 35V15C51 6.71573 44.15 0 35.7 0ZM5.1 15C5.1 9.47715 9.66669 5 15.3 5H35.7C41.3333 5 45.9 9.47715 45.9 15V35C45.9 40.5228 41.3333 45 35.7 45H15.3C9.66669 45 5.1 40.5228 5.1 35V15Z" fill="white"/>
</svg>
