<svg width="52" height="48" viewBox="0 0 52 48" fill="none" xmlns="http://www.w3.org/2000/svg">
<path fill-rule="evenodd" clip-rule="evenodd" d="M48.4174 6.33755L52 6.755L50.3896 9.97524C49.6042 11.5456 48.8181 13.116 48.0312 14.6864C47.9379 15.019 47.7739 15.3106 47.5314 15.6902C47.43 15.8488 47.0838 16.3534 47.0676 16.3776C46.9762 16.5144 46.9086 16.6223 46.8599 16.7087V22.7438C46.8599 38.1867 31.8811 48 17.7354 48C14.8409 48 12.6417 47.8616 10.1234 47.3133C5.97926 46.411 2.89517 44.6174 1.48389 41.4826L0.0309217 38.2553L3.56198 37.9313C6.75633 37.6382 9.52592 37.031 11.6528 36.2179C5.81369 35.281 2.54147 32.7222 2.54147 27.9167V25.3901H5.07382C5.63021 25.3901 6.1319 25.345 6.58043 25.2624C2.19808 22.6481 0.00309391 18.4542 0.00309391 12.6371C0.00261505 12.3892 0.00261505 12.3892 0.00112069 12.1241C-0.0153424 9.19204 0.142501 7.62537 0.946968 5.62584C1.46254 4.34436 2.20778 3.15803 3.21077 2.07102L5.1217 0L6.9796 2.11852C13.1022 9.10003 19.1546 13.3356 25.3341 13.8479C25.3605 7.40575 30.2402 2.5305 36.7301 2.5305C39.7556 2.5305 42.5 3.67632 44.6567 5.7424C45.8371 5.98441 47.0907 6.18296 48.4174 6.33755ZM42.8186 10.516L42.0423 10.3406L41.5062 9.75359C40.2098 8.3343 38.5827 7.58382 36.7301 7.58382C33.0253 7.58382 30.3987 10.2176 30.3987 13.9005C30.3987 14.5023 30.3831 14.8805 30.3079 15.3776C30.0081 17.3611 28.893 18.9538 26.6001 18.9538C19.008 18.9538 12.1587 14.8957 5.47974 7.96473C5.13542 9.00907 5.05444 10.0826 5.06574 12.0958C5.06727 12.365 5.06727 12.365 5.0678 12.6371C5.0678 17.8117 7.16892 20.6422 12.1438 22.2199L13.9091 22.7797V24.6278C13.9091 26.869 11.7811 28.9786 8.66744 29.9235C10.0947 31.004 13.0138 31.5871 17.7363 31.5871H20.2687V34.1137C20.2687 37.7338 16.0997 40.5681 9.80209 42.0483C11.8559 42.6761 14.5905 42.9467 17.7354 42.9467C29.4208 42.9467 41.7952 34.8396 41.7952 22.7438V16.4271C41.7952 15.6848 42.0109 15.0405 42.3691 14.3706C42.5092 14.1087 42.6635 13.859 42.8538 13.5741C42.8896 13.5205 43.0226 13.3263 43.1281 13.1709L43.3288 12.7705C43.6541 12.1215 43.9792 11.4726 44.3041 10.8236C43.7991 10.7282 43.3039 10.6256 42.8186 10.516Z" fill="white"/>
</svg>
